<svg width="360" height="473" viewBox="0 0 360 473" fill="none" xmlns="http://www.w3.org/2000/svg">
<path d="M66.9058 143.14C77.1649 139.368 81.5558 134.016 84.1444 123.509C84.8853 129.736 87.9407 135.014 92.8691 138.902C96.2045 141.563 100.231 143.215 104.474 143.664C96.8483 145.609 91.6703 147.991 87.1985 155.063C85.5225 157.713 84.3783 161.02 84.2095 164.169C82.1643 156.608 79.4296 150.887 72.2261 146.79C70.1485 145.609 67.9063 144.744 65.574 144.223C64.8999 144.083 64.6714 144.031 64.0329 143.785C64.4362 143.405 66.1945 143.256 66.9058 143.14Z" fill="white" fill-opacity="0.08"/>
<path d="M65.574 144.223C64.8999 144.083 64.6714 144.031 64.0329 143.785C64.4362 143.405 66.1945 143.256 66.9058 143.14C66.3754 144.054 66.6608 143.749 65.574 144.223Z" fill="white" fill-opacity="0.08"/>
<path d="M321.734 143.188C331.003 139.947 337.76 133.723 338.972 123.564C340.904 131.183 343.503 136.275 350.516 140.637C353.16 142.282 356.457 143.391 359.572 143.628C347.758 146.793 341.907 151.883 338.946 164.099C338.044 154.298 330.212 146.471 320.823 144.256C321.644 143.715 321.36 144.066 321.734 143.188Z" fill="white" fill-opacity="0.08"/>
<path d="M20.0913 0.673987C20.4238 1.02392 20.3945 0.952647 20.4941 1.4372C22.6224 11.7773 30.3873 18.6454 40.7491 20.4344C37.0781 20.772 33.2174 22.3327 30.2169 24.4387C24.9863 28.0694 21.4305 33.6469 20.3464 39.9215L20.1235 39.9844C19.865 39.1171 19.8359 38.2488 19.5826 37.435C16.5927 27.832 9.64635 22.2067 0 20.4413C3.81614 19.7392 7.49483 18.3289 10.644 16.0364C15.7222 12.3867 19.1251 6.85303 20.0913 0.673987Z" fill="white" fill-opacity="0.08"/>
<path d="M190.975 143.703C201.813 142.282 209.991 134.112 211.438 123.277C212.586 130.364 216.154 136.299 222.248 140.255C224.492 141.711 228.218 143.416 230.928 143.484L231.077 143.945C227.811 144.181 223.354 146.327 220.779 148.343C215.408 152.547 212.312 157.76 211.433 164.481C211.074 160.706 209.749 157.086 207.586 153.971C203.49 147.971 197.935 145.035 190.975 143.703Z" fill="white" fill-opacity="0.08"/>
<path d="M20.2169 123.393C21.441 130.417 24.4136 135.428 30.2585 139.747C32.2779 141.238 37.2044 143.605 39.6757 143.488L39.8257 143.945C36.5795 144.189 32.1837 146.289 29.6152 148.277C24.1741 152.489 21.0986 157.768 20.1814 164.544C19.8263 160.446 18.3693 156.759 15.9467 153.426C12.3448 148.406 6.91037 145.008 0.820963 143.969L0.694215 143.513C6.30728 142.945 11.7682 139.335 15.2542 135.008C17.9392 131.663 19.6557 127.646 20.2169 123.393Z" fill="white" fill-opacity="0.08"/>
<path d="M20.2166 431.814C21.2476 438.511 24.6314 444.223 30.1967 448.169C32.6389 449.901 36.3478 451.684 39.3706 451.918L39.9405 452.361C36.1324 452.96 32.5364 454.508 29.4842 456.863C24.1409 460.954 21.068 466.344 20.196 473C18.9238 461.377 10.9331 454.723 0.060192 452.176C3.97108 451.627 7.68078 450.1 10.8477 447.74C16.1687 443.768 19.2523 438.34 20.2166 431.814Z" fill="white" fill-opacity="0.08"/>
<path d="M191.223 20.4387C201.999 18.5232 209.843 10.9053 211.426 0C213.114 9.86427 220.793 19.0381 231.084 20.2053L231.11 20.6063C220.951 21.3844 212.923 31.1813 211.421 40.8399C211.008 37.1422 209.68 33.6057 207.556 30.5514C203.478 24.5987 198.149 21.698 191.223 20.4387Z" fill="white" fill-opacity="0.08"/>
<path d="M20.1943 308.479C22.3518 319.713 29.0825 326.422 40.2207 328.867C29.4236 331.35 21.587 338.13 20.1988 349.57C19.4336 342.982 16.4655 337.964 11.3381 333.694C9.24005 331.944 4.53668 329.383 1.81772 329.329L0.441408 328.787C6.79385 327.705 12.4543 324.14 16.173 318.878C18.346 315.793 19.7271 312.224 20.1943 308.479Z" fill="white" fill-opacity="0.08"/>
<path d="M191.318 452.176C195.411 451.594 199.279 449.946 202.534 447.395C207.486 443.491 210.667 438.094 211.396 431.816C212.279 436.698 213.832 440.31 217.055 444.185C220.061 447.799 225.837 451.551 230.606 451.918L231.167 452.359C220.734 453.902 212.816 462.594 211.427 472.915C210.076 461.278 202.195 454.766 191.318 452.176Z" fill="white" fill-opacity="0.08"/>
<path d="M191.669 328.787C201.746 326.928 210.428 318.894 211.393 308.434C213.663 319.732 220.196 326.356 231.458 328.867C220.518 331.36 213.643 337.635 211.414 348.891C210.27 342.102 207.011 336.92 201.415 332.815C199.558 331.452 195.326 329.362 193.049 329.329L191.669 328.787Z" fill="white" fill-opacity="0.08"/>
<path d="M211.342 62.2425C211.782 62.7303 212.225 65.257 212.504 66.0682C215.665 75.2452 222.402 80.0848 231.593 82.0957C227.74 82.7623 224.547 83.951 221.304 86.2164C216.134 89.8675 212.631 95.4279 211.569 101.668C211.467 101.648 211.365 101.629 211.264 101.609C211.028 98.0014 208.605 93.4885 206.423 90.6749C203.001 86.263 196.874 82.7947 191.278 82.1854C201.242 80.0476 210.177 72.8572 211.342 62.2425Z" fill="white" fill-opacity="0.08"/>
<path d="M147.641 370.635C148.029 371.675 148.269 372.943 148.628 374.039C151.555 382.999 158.42 388.891 167.748 390.425C156.46 393.249 150.457 398.965 147.734 410.344C147.344 409.142 147.154 407.937 146.744 406.718C143.796 397.962 136.738 392.056 127.645 390.579C138.629 388.131 145.42 381.823 147.641 370.635Z" fill="white" fill-opacity="0.08"/>
<path d="M318.929 452.178C323.015 451.589 326.88 449.949 330.149 447.423C335.124 443.527 338.205 438.238 338.991 431.97C340.033 436.903 341.706 440.807 345.065 444.642C348.052 448.053 353.803 451.679 358.419 451.916L358.873 452.337C356.603 452.512 352.483 454.098 350.544 455.329C343.533 459.775 340.908 464.753 338.961 472.399C337.645 461.1 329.45 454.624 318.929 452.178Z" fill="white" fill-opacity="0.08"/>
<path d="M147.281 63.533L147.852 62.3402C148.827 68.5218 152.234 74.0568 157.312 77.7129C160.858 80.2943 163.754 81.1798 167.918 82.1044C157.842 83.7666 149.118 91.5154 147.842 101.906L147.287 100.326C147.031 97.9065 144.986 93.7692 143.509 91.8005C139.456 86.3993 134.27 83.1897 127.643 82.151C132.77 80.8844 135.726 79.8355 139.952 76.2509C143.217 73.4816 146.992 67.8881 147.281 63.533Z" fill="white" fill-opacity="0.08"/>
<path d="M275.331 308.929C275.603 309.584 275.975 312.361 276.756 314.271C279.208 320.199 283.925 324.902 289.859 327.336C291.535 328.029 293.379 328.24 294.898 328.926C285.177 331.13 276.162 338.324 275.468 348.865C274.053 345.205 274.105 343.174 271.672 339.55C267.369 333.137 262.528 330.508 255.288 328.905C266.881 326.221 272.311 320.121 275.331 308.929Z" fill="white" fill-opacity="0.08"/>
<path d="M275.388 123.484C276.474 133.032 284.952 142.727 294.737 143.538L294.543 143.964C290.306 144.704 286.354 146.594 283.12 149.43C278.936 153.083 275.8 158.466 275.445 164.076C274.171 159.245 273.085 155.977 269.809 151.987C266.495 147.951 260.779 144.434 255.518 143.948L255.641 143.498C260.623 143.133 266.27 139.692 269.478 135.949C272.881 131.98 274.185 128.438 275.388 123.484Z" fill="white" fill-opacity="0.08"/>
<path d="M318.832 20.4411C329.37 18.5102 337.718 10.9941 338.965 0.0826584C341.365 10.1219 347.406 18.2827 358.135 20.1298L358.693 20.5815C347.415 22.4148 341.685 30.0557 338.953 40.5407C338.063 29.8377 329.003 22.206 318.832 20.4411Z" fill="white" fill-opacity="0.08"/>
<path d="M20.1226 62.2521C20.5463 62.7357 20.9903 65.3325 21.2779 66.1487C24.4898 75.2657 31.2061 80.1515 40.4079 82.097C36.4595 82.7445 33.0916 84.0419 29.8118 86.3946C24.7684 90.0457 21.3657 95.5362 20.3401 101.678L20.0949 101.675C19.4402 97.6496 17.7481 93.8646 15.1855 90.6926C11.5982 86.2145 5.74201 82.7928 0.016416 82.1891C10.3063 79.7072 18.6334 73.3337 20.1226 62.2521Z" fill="white" fill-opacity="0.08"/>
<path d="M84.0202 62.2428C84.3499 62.7612 84.8112 65.4884 85.0794 66.2757C88.0125 74.8857 95.3717 80.6225 104.132 82.0014C93.4024 84.3368 85.8816 90.9804 84.0785 102.119C83.17 98.0562 81.8519 94.4906 79.2862 91.161C75.5368 86.2156 69.9592 82.9823 63.8045 82.1865C75.1493 79.5944 81.2902 73.5064 84.0202 62.2428Z" fill="white" fill-opacity="0.08"/>
<path d="M84.0857 370.545C84.1889 370.723 84.6852 373.149 84.8003 373.585C87.2405 382.828 94.9351 388.886 103.996 390.436C99.188 391.622 95.5231 393.009 91.7175 396.364C87.7037 399.898 84.5387 405.271 84.222 410.687C83.8862 409.74 83.5979 408.552 83.2952 407.563C80.5036 398.461 73.3693 392.091 63.9137 390.604C75.4616 388.031 81.2272 381.813 84.0857 370.545Z" fill="white" fill-opacity="0.08"/>
<path d="M255.17 20.4411C266.794 17.7875 272.446 11.6771 275.333 0.313126C275.885 4.30604 277.466 8.08689 279.918 11.2852C283.421 15.8619 289.026 19.4684 294.787 20.2011L294.794 20.6056C285.071 21.7258 276.186 30.8556 275.433 40.6312C272.47 29.2246 266.95 22.8622 255.17 20.4411Z" fill="white" fill-opacity="0.08"/>
<path d="M275.258 432.463C275.52 432.846 276.209 436.214 276.505 437.022C277.262 439.1 278.387 441.086 279.703 442.85C283.509 447.982 289.234 451.348 295.568 452.183C285.606 454.167 276.112 461.481 275.466 472.261C274.098 469.07 274.176 466.881 271.778 463.188C267.364 456.385 262.656 453.966 255.106 452.195C266.481 450.053 272.465 443.404 275.258 432.463Z" fill="white" fill-opacity="0.08"/>
<path d="M84.0531 0.455237C85.0656 4.43819 85.4533 6.78968 87.9502 10.3146C92.1375 16.2262 97.4611 19.1593 104.428 20.4366C94.2999 21.8789 85.0424 29.8775 84.2266 40.4034C83.8273 39.5799 83.4486 38.0107 83.1714 37.105C80.2632 27.5977 73.2898 22.3279 63.8866 20.4378C75.4087 17.8709 81.1936 11.7321 84.0531 0.455237Z" fill="white" fill-opacity="0.08"/>
<path d="M338.937 308.907C339.361 309.457 340.13 313.069 340.523 314.016C344.12 322.677 350.165 326.434 358.76 328.926C347.645 331.523 341.865 337.502 339.112 348.519L338.93 348.555C337.422 337.678 329.382 331.22 319.147 328.903C323.32 327.918 326.726 326.708 330.17 324.036C334.989 320.362 338.144 314.918 338.937 308.907Z" fill="white" fill-opacity="0.08"/>
<path d="M84.053 309.012C84.4045 309.823 84.8397 312.678 85.7441 314.778C88.2715 320.584 93.0155 325.141 98.9202 327.433C100.503 328.065 102.228 328.316 103.653 328.929C93.8364 331.144 84.9673 338.324 84.2222 348.926C82.7888 345.503 82.928 343.349 80.3395 339.465C76.0524 333.033 71.3276 330.522 64.0491 328.905C75.5364 326.216 81.0889 320.194 84.053 309.012Z" fill="white" fill-opacity="0.08"/>
<path d="M275.279 370.702C275.487 370.971 276.394 375.104 276.803 376.056C280.214 384.003 286.711 389.014 295.265 390.429C290.799 391.686 288.273 392.257 284.34 395.22C279.409 398.923 276.178 404.455 275.371 410.569C272.593 399.919 266.536 392.394 255.16 390.604C266.514 388.057 272.493 381.884 275.279 370.702Z" fill="white" fill-opacity="0.08"/>
<path d="M338.932 247.366C339.249 247.698 339.659 249.549 339.803 250.11C342.061 258.828 350.376 266.531 359.683 267.056C348.71 269.452 341.72 275.443 339.214 286.64C339.096 286.831 339.185 286.749 338.892 286.822C338.068 276.762 328.523 268.884 318.972 267.279C329.152 265.366 337.633 257.931 338.932 247.366Z" fill="white" fill-opacity="0.08"/>
<path d="M338.92 62.2426C339.339 62.6609 340.09 66.1264 340.433 66.9843C343.867 75.5625 350.871 80.8609 360 82.0772C348.646 83.5765 341.751 90.7364 339.143 101.655L338.975 101.712L338.797 100.877C338.08 97.3135 336.563 93.959 334.359 91.0673C330.589 86.1908 325.05 82.993 318.944 82.1645C329.178 79.8369 337.576 73.1833 338.92 62.2426Z" fill="white" fill-opacity="0.08"/>
<path d="M63.8266 452.19C75.4497 450.06 81.2946 443.228 84.097 432.131C84.6752 436.447 86.4665 440.511 89.2627 443.849C92.4744 447.698 98.0404 451.473 103.101 451.925L103.673 452.375C99.3074 453.064 95.225 454.969 91.8936 457.874C87.6772 461.567 84.5836 466.883 84.2073 472.538C81.1641 460.793 75.733 454.948 63.8266 452.19Z" fill="white" fill-opacity="0.08"/>
<path d="M339.031 185.242C341.316 196.52 347.597 202.609 358.563 205.539L357.493 206.015C355.768 206.107 352.322 207.553 350.802 208.48C343.645 212.846 340.965 218.003 338.951 225.702C338.276 216.813 329.561 207.096 320.633 206.005L319.886 205.417C330.25 202.982 337.358 196.058 339.008 185.396L339.031 185.242Z" fill="white" fill-opacity="0.08"/>
<path d="M20.1141 247.352C20.4481 247.686 21.1995 251.175 21.5399 252.046C24.566 259.784 31.787 266.133 40.3099 266.955C36.2687 268.084 33.1983 269.028 29.715 271.573C24.6635 275.258 21.2836 280.8 20.3191 286.978L20.1202 286.775C18.1039 275.516 10.7295 269.821 0.21049 267.016C3.91292 266.618 7.71742 264.95 10.7118 262.772C15.7808 259.096 19.1668 253.542 20.1141 247.352Z" fill="white" fill-opacity="0.08"/>
<path d="M275.279 62.2445C275.573 62.7574 275.864 64.6308 276.06 65.3201C278.661 74.5396 286.214 80.3713 295.298 82.0274C290.612 83.187 287.873 83.9867 283.89 87.1075C279.428 90.6035 276.067 96.2562 275.409 101.921C275.045 101.112 274.659 99.6259 274.396 98.7228C271.885 90.0865 264.095 83.2464 255.063 82.1973C266.531 79.4619 272.413 73.6323 275.279 62.2445Z" fill="white" fill-opacity="0.08"/>
<path d="M211.34 370.683C211.679 371.019 212.478 374.596 212.818 375.49C213.685 377.706 214.866 379.787 216.322 381.671C220.064 386.49 225.569 389.627 231.621 390.389C227.432 391.653 225.257 391.949 221.328 394.683C216.142 398.314 212.629 403.875 211.574 410.117L211.306 410.138L211.195 409.428C209.707 399.481 201.023 392.335 191.454 390.571C195.362 389.719 199.103 388.285 202.323 385.875C207.226 382.208 210.47 376.742 211.34 370.683Z" fill="white" fill-opacity="0.08"/>
<path d="M338.916 370.678C339.349 371.154 340.066 374.664 340.494 375.677C343.91 383.766 350.961 389.707 359.991 390.391C348.516 392.661 341.898 398.601 339.145 410.103L338.932 410.117C337.588 399.948 328.937 392.162 318.977 390.583C329.072 388.483 337.744 381.387 338.916 370.678Z" fill="white" fill-opacity="0.08"/>
<path d="M127.565 20.4501C138.906 17.9161 145.273 11.7497 147.691 0.354843C149.827 10.0427 156.956 19.2161 167.408 20.2077L167.439 20.6073C165.245 20.732 162.237 21.8171 160.313 22.8177C155.006 25.578 151.075 30.1802 148.986 35.7695C148.418 37.2895 148.135 38.7204 147.643 40.2635C145.847 29.3543 138.208 22.4435 127.565 20.4501Z" fill="white" fill-opacity="0.08"/>
<path d="M20.0859 185.779C20.4883 186.167 21.2561 189.549 21.5695 190.341C25.0351 199.098 31.5491 203.566 40.5156 205.554C36.7113 205.944 33.036 207.496 29.9337 209.705C24.8455 213.347 21.3989 218.849 20.342 225.017L20.0881 225.013C18.2887 214.463 10.5442 207.418 0.193344 205.568C4.32357 204.56 7.38985 203.535 10.9042 200.927C15.8447 197.288 19.1456 191.842 20.0859 185.779Z" fill="white" fill-opacity="0.08"/>
<path d="M127.644 452.164C138.873 450.238 145.5 442.956 147.722 432.027C149.272 441.46 157.091 451.042 167.007 451.93L167.469 452.347C165.063 452.733 162.73 453.483 160.55 454.572C155.113 457.313 151.164 461.86 149.029 467.539C148.449 469.082 148.146 470.567 147.635 472.131C145.749 460.786 138.357 454.801 127.644 452.164Z" fill="white" fill-opacity="0.08"/>
<path d="M147.665 123.6C148.746 128.561 150.11 131.952 153.46 135.938C156.635 139.715 162.384 143.146 167.361 143.522L167.19 143.957C165.225 144.172 162.39 145.171 160.611 146.065C155.333 148.722 151.242 153.259 149.142 158.784C148.482 160.474 148.199 161.973 147.63 163.659C147.105 160.158 145.801 156.82 143.812 153.891C139.789 147.926 134.192 145.075 127.339 143.71C131.101 143.224 134.692 141.841 137.81 139.679C143.517 135.715 146.47 130.316 147.665 123.6Z" fill="white" fill-opacity="0.08"/>
<path d="M147.635 308.929C148.706 312.304 149.007 314.477 151.018 317.663C155.254 324.372 160.231 327.056 167.601 328.879C156.244 331.452 150.376 337.512 147.707 348.782C145.394 337.498 138.824 331.417 127.784 328.896C138.734 326.294 145.475 320.184 147.635 308.929Z" fill="white" fill-opacity="0.08"/>
<path d="M20.2801 370.659C21.0742 374.73 22.5185 378.362 25.0845 381.664C28.7958 386.476 34.2688 389.613 40.2959 390.384C35.7744 391.864 33.5935 392.037 29.4117 395.168C24.5233 398.837 21.2641 404.275 20.3305 410.316C19.8368 409.736 19.7452 407.906 19.4235 406.966C16.3691 398.054 9.48681 392.186 0.133152 390.569C11.6788 388.278 17.3802 381.711 20.2801 370.659Z" fill="white" fill-opacity="0.08"/>
</svg>
